<mxfile host="Electron" modified="2024-07-21T08:18:36.150Z" agent="Mozilla/5.0 (Macintosh; Intel Mac OS X 10_15_7) AppleWebKit/537.36 (KHTML, like Gecko) draw.io/24.6.4 Chrome/124.0.6367.207 Electron/30.0.6 Safari/537.36" etag="8N-wML3Od3U1loGz71n2" version="24.6.4" type="device">
  <diagram name="페이지-1" id="Qg6w8-DWrhAOKn7NqkUU">
    <mxGraphModel dx="1114" dy="894" grid="1" gridSize="10" guides="1" tooltips="1" connect="1" arrows="1" fold="1" page="1" pageScale="1" pageWidth="827" pageHeight="1169" math="0" shadow="0">
      <root>
        <mxCell id="0" />
        <mxCell id="1" parent="0" />
        <mxCell id="zLVisXOZD7tS6rRkYVRN-6" style="edgeStyle=orthogonalEdgeStyle;rounded=0;orthogonalLoop=1;jettySize=auto;html=1;entryX=0.5;entryY=0;entryDx=0;entryDy=0;endArrow=none;endFill=0;" edge="1" parent="1" source="zLVisXOZD7tS6rRkYVRN-1" target="zLVisXOZD7tS6rRkYVRN-5">
          <mxGeometry relative="1" as="geometry" />
        </mxCell>
        <mxCell id="zLVisXOZD7tS6rRkYVRN-1" value="검색&lt;div&gt;바운디드 컨텍스트&lt;/div&gt;" style="rounded=0;whiteSpace=wrap;html=1;fillColor=#dae8fc;strokeColor=#6c8ebf;" vertex="1" parent="1">
          <mxGeometry x="220" y="120" width="120" height="40" as="geometry" />
        </mxCell>
        <mxCell id="zLVisXOZD7tS6rRkYVRN-8" style="rounded=0;orthogonalLoop=1;jettySize=auto;html=1;entryX=0.5;entryY=1;entryDx=0;entryDy=0;" edge="1" parent="1" source="zLVisXOZD7tS6rRkYVRN-3" target="zLVisXOZD7tS6rRkYVRN-5">
          <mxGeometry relative="1" as="geometry" />
        </mxCell>
        <mxCell id="zLVisXOZD7tS6rRkYVRN-3" value="카페&lt;div&gt;바운디드 컨텍스트&lt;/div&gt;" style="rounded=0;whiteSpace=wrap;html=1;fillColor=#d5e8d4;strokeColor=#82b366;" vertex="1" parent="1">
          <mxGeometry x="300" y="280" width="120" height="40" as="geometry" />
        </mxCell>
        <mxCell id="zLVisXOZD7tS6rRkYVRN-7" style="rounded=0;orthogonalLoop=1;jettySize=auto;html=1;entryX=0.5;entryY=1;entryDx=0;entryDy=0;" edge="1" parent="1" source="zLVisXOZD7tS6rRkYVRN-4" target="zLVisXOZD7tS6rRkYVRN-5">
          <mxGeometry relative="1" as="geometry" />
        </mxCell>
        <mxCell id="zLVisXOZD7tS6rRkYVRN-4" value="블로그&lt;div&gt;바운디드 컨텍스트&lt;/div&gt;" style="rounded=0;whiteSpace=wrap;html=1;fillColor=#d5e8d4;strokeColor=#82b366;" vertex="1" parent="1">
          <mxGeometry x="140" y="280" width="120" height="40" as="geometry" />
        </mxCell>
        <mxCell id="zLVisXOZD7tS6rRkYVRN-5" value="공개 호스트 서비스" style="rounded=1;whiteSpace=wrap;html=1;fillColor=#f8cecc;strokeColor=#b85450;" vertex="1" parent="1">
          <mxGeometry x="220" y="200" width="120" height="40" as="geometry" />
        </mxCell>
        <mxCell id="zLVisXOZD7tS6rRkYVRN-9" value="upstream component" style="text;html=1;align=center;verticalAlign=middle;whiteSpace=wrap;rounded=0;fontStyle=1;fontSize=13;fontColor=#3333FF;" vertex="1" parent="1">
          <mxGeometry x="354" y="130" width="140" height="20" as="geometry" />
        </mxCell>
        <mxCell id="zLVisXOZD7tS6rRkYVRN-10" value="downstream component" style="text;html=1;align=center;verticalAlign=middle;whiteSpace=wrap;rounded=0;fontStyle=1;fontSize=13;fontColor=#97D077;" vertex="1" parent="1">
          <mxGeometry x="430" y="290" width="170" height="20" as="geometry" />
        </mxCell>
      </root>
    </mxGraphModel>
  </diagram>
</mxfile>
